<?xml version="1.0" encoding="utf-8"?>
<!-- Generator: Adobe Illustrator 21.1.0, SVG Export Plug-In . SVG Version: 6.00 Build 0)  -->
<svg version="1.1" id="Layer_1" xmlns="http://www.w3.org/2000/svg" xmlns:xlink="http://www.w3.org/1999/xlink" x="0px" y="0px"
	 viewBox="0 0 1366 50" style="enable-background:new 0 0 1366 50;" xml:space="preserve">
<style type="text/css">
	.st0{fill:#54AFAF;}
</style>
<g>
	<path class="st0" d="M346,50.5C346,23.7,268.5,2,173,2S0,23.7,0,50.5C0,51.2,346,51.3,346,50.5z"/>
</g>
<g>
	<path class="st0" d="M686,50.5C686,23.7,609.9,2,516,2S346,23.7,346,50.5C346,51.2,686,51.3,686,50.5z"/>
</g>
<g>
	<path class="st0" d="M1026,50.5C1026,23.7,949.9,2,856,2S686,23.7,686,50.5C686,51.2,1026,51.3,1026,50.5z"/>
</g>
<g>
	<path class="st0" d="M1366,50.5c0-26.8-76.1-48.5-170-48.5s-170,21.7-170,48.5C1026,51.2,1366,51.3,1366,50.5z"/>
</g>
</svg>
